<svg width="32" height="32" viewBox="0 0 32 32" fill="none" xmlns="http://www.w3.org/2000/svg">
<g clip-path="url(#clip0_33_893)">
<path d="M23.9999 8.00033H21.3333C21.3333 5.05366 18.9466 2.66699 15.9999 2.66699C13.0533 2.66699 10.6666 5.05366 10.6666 8.00033H7.99992C6.53325 8.00033 5.33325 9.20033 5.33325 10.667V26.667C5.33325 28.1337 6.53325 29.3337 7.99992 29.3337H23.9999C25.4666 29.3337 26.6666 28.1337 26.6666 26.667V10.667C26.6666 9.20033 25.4666 8.00033 23.9999 8.00033ZM15.9999 5.33366C17.4666 5.33366 18.6666 6.53366 18.6666 8.00033H13.3333C13.3333 6.53366 14.5333 5.33366 15.9999 5.33366ZM23.9999 26.667H7.99992V10.667H10.6666V13.3337C10.6666 14.067 11.2666 14.667 11.9999 14.667C12.7333 14.667 13.3333 14.067 13.3333 13.3337V10.667H18.6666V13.3337C18.6666 14.067 19.2666 14.667 19.9999 14.667C20.7333 14.667 21.3333 14.067 21.3333 13.3337V10.667H23.9999V26.667Z" fill="#002F52"/>
</g>
<defs>
<clipPath id="clip0_33_893">
<rect width="32" height="32" fill="white"/>
</clipPath>
</defs>
</svg>
