<svg width="32" height="32" viewBox="0 0 32 32" fill="none" xmlns="http://www.w3.org/2000/svg">
<path d="M16.0005 0C7.16849 0 0.000488281 7.168 0.000488281 16C0.000488281 24.832 7.16849 32 16.0005 32C24.8325 32 32.0005 24.832 32.0005 16C32.0005 7.168 24.8325 0 16.0005 0ZM8.11249 26.048C8.80049 24.608 12.9925 23.2 16.0005 23.2C19.0085 23.2 23.2165 24.608 23.8885 26.048C21.7125 27.776 18.9765 28.8 16.0005 28.8C13.0245 28.8 10.2885 27.776 8.11249 26.048ZM26.1765 23.728C23.8885 20.944 18.3365 20 16.0005 20C13.6645 20 8.11249 20.944 5.82449 23.728C4.19249 21.584 3.20049 18.912 3.20049 16C3.20049 8.944 8.94449 3.2 16.0005 3.2C23.0565 3.2 28.8005 8.944 28.8005 16C28.8005 18.912 27.8085 21.584 26.1765 23.728V23.728ZM16.0005 6.4C12.8965 6.4 10.4005 8.896 10.4005 12C10.4005 15.104 12.8965 17.6 16.0005 17.6C19.1045 17.6 21.6005 15.104 21.6005 12C21.6005 8.896 19.1045 6.4 16.0005 6.4ZM16.0005 14.4C14.6725 14.4 13.6005 13.328 13.6005 12C13.6005 10.672 14.6725 9.6 16.0005 9.6C17.3285 9.6 18.4005 10.672 18.4005 12C18.4005 13.328 17.3285 14.4 16.0005 14.4Z" fill="#002F52"/>
</svg>
