<svg width="26" height="32" viewBox="0 0 26 32" fill="none" xmlns="http://www.w3.org/2000/svg">
<path d="M22.4999 6.50033H19.3333C19.3333 3.00116 16.4991 0.166992 12.9999 0.166992C9.50075 0.166992 6.66658 3.00116 6.66658 6.50033H3.49992C1.75825 6.50033 0.333252 7.92533 0.333252 9.66699V28.667C0.333252 30.4087 1.75825 31.8337 3.49992 31.8337H22.4999C24.2416 31.8337 25.6666 30.4087 25.6666 28.667V9.66699C25.6666 7.92533 24.2416 6.50033 22.4999 6.50033ZM12.9999 3.33366C14.7416 3.33366 16.1666 4.75866 16.1666 6.50033H9.83325C9.83325 4.75866 11.2583 3.33366 12.9999 3.33366ZM22.4999 28.667H3.49992V9.66699H6.66658V12.8337C6.66658 13.7045 7.37909 14.417 8.24992 14.417C9.12075 14.417 9.83325 13.7045 9.83325 12.8337V9.66699H16.1666V12.8337C16.1666 13.7045 16.8791 14.417 17.7499 14.417C18.6208 14.417 19.3333 13.7045 19.3333 12.8337V9.66699H22.4999V28.667Z" fill="#002F52"/>
</svg>
